<svg xmlns="http://www.w3.org/2000/svg" xmlns:xlink="http://www.w3.org/1999/xlink" version="1.1" width="1000" height="1000" viewBox="0 0 1000 1000" xml:space="preserve">
<desc>Created with Fabric.js 3.5.0</desc>
<defs>
</defs>
<rect x="0" y="0" width="100%" height="100%" fill="#ffffff"/>
<g transform="matrix(1.6665 0 0 1.5904 500.6652 476.3914)" id="261240">
<g style="" vector-effect="non-scaling-stroke">
		<g transform="matrix(0.1333 0 0 -0.1333 102.7305 -137.9764)">
<path style="stroke: none; stroke-width: 1; stroke-dasharray: none; stroke-linecap: butt; stroke-dashoffset: 0; stroke-linejoin: miter; stroke-miterlimit: 4; is-custom-font: none; font-file-url: none; fill: rgb(0,0,0); fill-rule: nonzero; opacity: 1;" transform=" translate(-2910.7428, -3289.6075)" d="M 2708 4140 c -137 -23 -229 -64 -389 -170 c -227 -152 -335 -247 -407 -358 c -53 -82 -68 -150 -52 -240 c 55 -316 485 -779 744 -799 c 70 -6 103 6 149 55 c 33 34 46 82 47 167 l 1 60 l 26 -50 c 14 -27 28 -52 32 -55 c 3 -3 23 -30 43 -60 c 78 -116 193 -203 321 -242 c 91 -27 266 -22 372 12 c 192 61 340 166 365 261 c 26 96 -14 192 -136 329 c -42 47 -81 94 -87 105 c -7 13 -11 100 -11 241 l -1 220 l -42 86 c -110 221 -346 383 -632 433 c -88 16 -264 18 -343 5 z m 390 -110 c 226 -55 413 -193 500 -370 l 37 -74 l 0 -221 c 0 -253 -3 -243 95 -351 c 63 -69 71 -84 44 -84 c -36 0 -86 -34 -111 -77 c -41 -71 -31 -171 24 -235 c 13 -15 10 -18 -34 -38 c -127 -57 -296 -76 -404 -44 c -155 45 -272 166 -351 363 c -84 209 -110 353 -112 607 c -1 200 -6 224 -46 224 c -24 0 -57 -42 -70 -89 c -21 -68 -23 -277 -5 -446 c 9 -88 19 -231 22 -317 c 5 -136 3 -161 -11 -183 c -34 -52 -115 -26 -264 84 c -169 126 -318 296 -399 458 c -40 81 -47 103 -51 171 c -4 70 -2 84 22 131 c 15 29 55 81 90 115 c 65 66 286 235 390 299 c 68 42 183 83 271 97 c 87 13 267 4 363 -20 z m 757 -1214 c 29 -21 14 -82 -30 -126 l -36 -35 l -25 28 c -29 34 -34 106 -8 131 c 19 20 74 21 99 2 z" stroke-linecap="round"/>
</g>
		<g transform="matrix(0.1333 0 0 -0.1333 133.8687 -164.9276)">
<path style="stroke: none; stroke-width: 1; stroke-dasharray: none; stroke-linecap: butt; stroke-dashoffset: 0; stroke-linejoin: miter; stroke-miterlimit: 4; is-custom-font: none; font-file-url: none; fill: rgb(0,0,0); fill-rule: nonzero; opacity: 1;" transform=" translate(-3144.0718, -3491.925)" d="M 3170 3613 c 0 -4 12 -20 27 -35 l 27 -28 l -55 0 c -73 0 -163 -43 -212 -100 c -70 -82 -42 -109 60 -58 c 60 29 77 33 143 32 c 45 -1 93 -8 120 -18 c 25 -10 56 -20 69 -23 c 23 -6 24 -4 17 27 c -12 63 -59 143 -101 171 c -40 27 -95 46 -95 32 z" stroke-linecap="round"/>
</g>
		<g transform="matrix(0.1333 0 0 -0.1333 -131.9507 122.6038)">
<path style="stroke: none; stroke-width: 1; stroke-dasharray: none; stroke-linecap: butt; stroke-dashoffset: 0; stroke-linejoin: miter; stroke-miterlimit: 4; is-custom-font: none; font-file-url: none; fill: rgb(0,0,0); fill-rule: nonzero; opacity: 1;" transform=" translate(-1150.6573, -1335.151)" d="M 2228 2610 c -9 -6 -43 -65 -76 -133 c -107 -218 -252 -382 -567 -642 c -450 -372 -562 -492 -645 -691 c -47 -114 -71 -217 -78 -344 l -7 -115 l -90 -13 c -70 -11 -112 -11 -186 -3 c -178 20 -296 78 -432 214 c -73 73 -93 88 -115 85 c -24 -3 -27 -8 -30 -43 c -3 -37 2 -46 53 -102 c 180 -199 423 -292 683 -263 c 54 6 105 12 115 13 c 14 2 24 -16 45 -78 c 58 -171 164 -296 316 -370 c 125 -62 216 -79 376 -72 c 152 7 251 31 362 89 c 191 99 318 279 334 472 c 15 167 -78 346 -214 413 c -50 25 -68 28 -147 27 c -149 -1 -215 -23 -650 -214 c -77 -33 -177 -74 -222 -90 l -83 -29 l 0 57 c 0 81 32 224 70 315 c 72 172 182 294 520 576 c 249 207 428 374 515 481 c 94 116 225 358 225 417 c 0 12 -10 29 -22 37 c -26 18 -27 19 -50 6 z m -202 -1679 c 52 -24 109 -90 135 -160 c 17 -46 20 -72 17 -143 c -4 -75 -9 -96 -41 -161 c -70 -142 -222 -254 -397 -293 c -92 -21 -275 -23 -350 -5 c -152 37 -282 134 -349 260 c -39 74 -65 170 -47 176 c 194 68 263 96 513 211 c 283 130 419 160 519 115 z" stroke-linecap="round"/>
</g>
		<g transform="matrix(0.1333 0 0 -0.1333 137.7754 132.3171)">
<path style="stroke: none; stroke-width: 1; stroke-dasharray: none; stroke-linecap: butt; stroke-dashoffset: 0; stroke-linejoin: miter; stroke-miterlimit: 4; is-custom-font: none; font-file-url: none; fill: rgb(0,0,0); fill-rule: nonzero; opacity: 1;" transform=" translate(-3173.5289, -1262.3393)" d="M 3142 2378 c -21 -21 -13 -64 23 -124 c 20 -32 40 -76 46 -96 c 6 -25 7 -157 3 -376 c -7 -386 0 -500 46 -661 c 74 -260 184 -392 418 -503 c 118 -56 172 -104 209 -185 c 37 -79 40 -123 13 -148 c -20 -18 -39 -20 -176 -23 c -177 -4 -390 10 -496 34 c -109 24 -241 91 -318 162 l -64 59 l 43 92 c 62 134 91 259 91 390 c 0 377 -143 645 -336 629 c -113 -10 -193 -110 -215 -271 c -28 -206 69 -524 235 -772 c 56 -83 56 -83 -37 -182 c -73 -76 -149 -126 -240 -158 c -57 -19 -62 -23 -65 -52 c -2 -25 2 -35 22 -48 c 23 -15 29 -15 97 9 c 96 34 194 101 279 194 l 69 75 l 47 -42 c 199 -175 397 -226 849 -219 c 204 3 223 5 261 25 c 70 37 92 91 73 182 c -31 157 -113 253 -287 338 c -227 111 -335 258 -389 531 c -15 74 -17 153 -18 517 l 0 430 l -27 57 c -46 98 -85 148 -116 148 c -16 0 -33 -5 -40 -12 z m -435 -868 c 94 -57 153 -218 168 -460 c 5 -80 3 -124 -10 -185 c -18 -88 -74 -237 -90 -242 c -16 -5 -102 145 -153 264 c -68 163 -94 277 -90 403 c 4 122 29 189 82 221 c 39 24 53 24 93 -1 z" stroke-linecap="round"/>
</g>
</g>
</g>
</svg>