<?xml version="1.0" standalone="no"?>
<!DOCTYPE svg PUBLIC "-//W3C//DTD SVG 20010904//EN"
 "http://www.w3.org/TR/2001/REC-SVG-20010904/DTD/svg10.dtd">
<svg version="1.0" xmlns="http://www.w3.org/2000/svg"
 width="428.000000pt" height="451.000000pt" viewBox="0 0 428.000000 451.000000"
 preserveAspectRatio="xMidYMid meet">

<g transform="translate(0.000000,451.000000) scale(0.100000,-0.100000)"
fill="#000000" stroke="none">
<path d="M2708 4140 c-137 -23 -229 -64 -389 -170 -227 -152 -335 -247 -407
-358 -53 -82 -68 -150 -52 -240 55 -316 485 -779 744 -799 70 -6 103 6 149 55
33 34 46 82 47 167 l1 60 26 -50 c14 -27 28 -52 32 -55 3 -3 23 -30 43 -60 78
-116 193 -203 321 -242 91 -27 266 -22 372 12 192 61 340 166 365 261 26 96
-14 192 -136 329 -42 47 -81 94 -87 105 -7 13 -11 100 -11 241 l-1 220 -42 86
c-110 221 -346 383 -632 433 -88 16 -264 18 -343 5z m390 -110 c226 -55 413
-193 500 -370 l37 -74 0 -221 c0 -253 -3 -243 95 -351 63 -69 71 -84 44 -84
-36 0 -86 -34 -111 -77 -41 -71 -31 -171 24 -235 13 -15 10 -18 -34 -38 -127
-57 -296 -76 -404 -44 -155 45 -272 166 -351 363 -84 209 -110 353 -112 607
-1 200 -6 224 -46 224 -24 0 -57 -42 -70 -89 -21 -68 -23 -277 -5 -446 9 -88
19 -231 22 -317 5 -136 3 -161 -11 -183 -34 -52 -115 -26 -264 84 -169 126
-318 296 -399 458 -40 81 -47 103 -51 171 -4 70 -2 84 22 131 15 29 55 81 90
115 65 66 286 235 390 299 68 42 183 83 271 97 87 13 267 4 363 -20z m757
-1214 c29 -21 14 -82 -30 -126 l-36 -35 -25 28 c-29 34 -34 106 -8 131 19 20
74 21 99 2z"/>
<path d="M3170 3613 c0 -4 12 -20 27 -35 l27 -28 -55 0 c-73 0 -163 -43 -212
-100 -70 -82 -42 -109 60 -58 60 29 77 33 143 32 45 -1 93 -8 120 -18 25 -10
56 -20 69 -23 23 -6 24 -4 17 27 -12 63 -59 143 -101 171 -40 27 -95 46 -95
32z"/>
<path d="M2228 2610 c-9 -6 -43 -65 -76 -133 -107 -218 -252 -382 -567 -642
-450 -372 -562 -492 -645 -691 -47 -114 -71 -217 -78 -344 l-7 -115 -90 -13
c-70 -11 -112 -11 -186 -3 -178 20 -296 78 -432 214 -73 73 -93 88 -115 85
-24 -3 -27 -8 -30 -43 -3 -37 2 -46 53 -102 180 -199 423 -292 683 -263 54 6
105 12 115 13 14 2 24 -16 45 -78 58 -171 164 -296 316 -370 125 -62 216 -79
376 -72 152 7 251 31 362 89 191 99 318 279 334 472 15 167 -78 346 -214 413
-50 25 -68 28 -147 27 -149 -1 -215 -23 -650 -214 -77 -33 -177 -74 -222 -90
l-83 -29 0 57 c0 81 32 224 70 315 72 172 182 294 520 576 249 207 428 374
515 481 94 116 225 358 225 417 0 12 -10 29 -22 37 -26 18 -27 19 -50 6z
m-202 -1679 c52 -24 109 -90 135 -160 17 -46 20 -72 17 -143 -4 -75 -9 -96
-41 -161 -70 -142 -222 -254 -397 -293 -92 -21 -275 -23 -350 -5 -152 37 -282
134 -349 260 -39 74 -65 170 -47 176 194 68 263 96 513 211 283 130 419 160
519 115z"/>
<path d="M3142 2378 c-21 -21 -13 -64 23 -124 20 -32 40 -76 46 -96 6 -25 7
-157 3 -376 -7 -386 0 -500 46 -661 74 -260 184 -392 418 -503 118 -56 172
-104 209 -185 37 -79 40 -123 13 -148 -20 -18 -39 -20 -176 -23 -177 -4 -390
10 -496 34 -109 24 -241 91 -318 162 l-64 59 43 92 c62 134 91 259 91 390 0
377 -143 645 -336 629 -113 -10 -193 -110 -215 -271 -28 -206 69 -524 235
-772 56 -83 56 -83 -37 -182 -73 -76 -149 -126 -240 -158 -57 -19 -62 -23 -65
-52 -2 -25 2 -35 22 -48 23 -15 29 -15 97 9 96 34 194 101 279 194 l69 75 47
-42 c199 -175 397 -226 849 -219 204 3 223 5 261 25 70 37 92 91 73 182 -31
157 -113 253 -287 338 -227 111 -335 258 -389 531 -15 74 -17 153 -18 517 l0
430 -27 57 c-46 98 -85 148 -116 148 -16 0 -33 -5 -40 -12z m-435 -868 c94
-57 153 -218 168 -460 5 -80 3 -124 -10 -185 -18 -88 -74 -237 -90 -242 -16
-5 -102 145 -153 264 -68 163 -94 277 -90 403 4 122 29 189 82 221 39 24 53
24 93 -1z"/>
</g>
</svg>
